<svg width="86" height="27" viewBox="0 0 86 27" fill="none" xmlns="http://www.w3.org/2000/svg">
<circle cx="13.224" cy="13.224" r="13.224" fill="#ED1C24"/>
<path d="M10.1027 6.27074C9.95063 6.51784 9.68452 7.46821 9.51345 8.41859C9.1333 10.4904 8.354 12.2011 7.74575 12.2771C7.25156 12.3531 7.00446 11.954 6.71935 10.6235C6.56729 9.88217 6.43424 9.65408 6.16813 9.65408C5.90202 9.65408 5.76897 9.88217 5.5979 10.6615C5.36981 11.7639 4.79959 12.8283 4.36242 12.9994C4.13433 13.0944 4.19135 13.2465 4.62852 13.7597C4.95165 14.1018 5.29378 14.7671 5.42684 15.2043C5.95905 17.2191 6.30118 17.3521 6.70034 15.7175C7.00446 14.501 7.21354 14.2159 7.76476 14.2159C8.41102 14.2159 9.00025 15.4894 9.49445 17.9604C9.95063 20.2033 10.2357 20.7925 10.787 20.5644C11.1101 20.4503 11.4902 19.4049 11.4902 18.6826C11.4902 18.4546 11.6233 17.7703 11.7754 17.162C12.5357 14.1779 13.334 13.6457 14.1323 15.6034C14.3604 16.1356 14.6835 17.3521 14.8356 18.3025C15.1777 20.2793 15.6149 21.0016 16.1661 20.4503C16.3562 20.2793 16.6413 19.3479 16.8314 18.3405C17.0024 17.3521 17.3636 16.0406 17.6107 15.4324C17.9718 14.501 18.1239 14.2919 18.561 14.2539C19.1503 14.1779 19.3974 14.539 19.7395 15.9076C20.0436 17.162 20.4238 17.048 20.8419 15.5464C21.089 14.7101 21.3932 14.1399 21.7923 13.7787C22.3625 13.2275 22.3625 13.2275 21.9634 12.9614C21.4312 12.5812 21.051 11.8019 20.7849 10.6045C20.6329 9.88217 20.4998 9.65408 20.2337 9.65408C19.9676 9.65408 19.8345 9.88217 19.6825 10.6235C19.3974 11.954 19.1503 12.3531 18.6561 12.2771C17.8958 12.1631 17.3065 10.6615 16.6223 7.14508C16.4512 6.32776 16.3181 6.02364 16.014 5.9286C15.8049 5.87158 15.5388 5.90959 15.4438 6.00463C15.3298 6.11868 15.0446 7.16409 14.7975 8.32355C14.2653 10.9466 13.8472 11.8399 13.2009 11.8399C12.5547 11.8399 12.1555 10.9656 11.6043 8.36156C11.3572 7.22111 11.1101 6.1757 11.0341 6.06166C10.825 5.71952 10.3688 5.81456 10.1027 6.27074Z" fill="white"/>
<path d="M79.5807 20.1276V9.19035H81.7601V12.7555C82.0375 10.3183 83.3451 9.04936 85.6038 9.04936H86V11.4866H85.2471C83.3847 11.4866 82.3347 12.534 82.3347 14.4273V20.1276H79.5807Z" fill="#ED1C24"/>
<path d="M74.6715 20.1276V7.51861H73.3242V5.42381H77.4254V20.1276H74.6715Z" fill="#ED1C24"/>
<path d="M66.1988 24.4381C65.1488 24.4381 64.0393 24.3575 63.1279 24.2165V21.88C64.0591 22.0009 65.228 22.1016 66.179 22.1016C68.8339 22.1016 69.9236 21.1549 69.9236 18.9997V18.0328C69.1906 19.4428 67.8631 20.2082 66.1988 20.2082C63.2269 20.2082 61.2853 17.7911 61.2853 14.7094V14.2864C61.2853 11.1845 63.3458 8.848 66.3573 8.848C68.2197 8.848 69.6265 9.75439 70.3397 11.4262V9.19041H72.5191V18.8385C72.5191 22.8267 70.5577 24.4381 66.1988 24.4381ZM66.9914 17.8113C68.5764 17.8113 69.884 16.6833 69.884 14.7497V14.0447C69.884 12.1916 68.5169 11.1644 66.9914 11.1644C65.2478 11.1644 64.0393 12.4736 64.0393 14.508C64.0393 16.5423 65.2676 17.8113 66.9914 17.8113Z" fill="#ED1C24"/>
<path d="M54.0009 20.4701C51.5045 20.4701 50.0977 18.7983 50.0977 15.5151V9.17029H52.8517V15.7568C52.8517 17.1063 53.664 17.9523 54.9123 17.9523C56.1803 17.9523 57.0718 17.066 57.0718 15.6359V9.17029H59.8258V20.1277H57.6464V17.5897C57.1907 19.5033 56.002 20.4701 54.1197 20.4701H54.0009Z" fill="#ED1C24"/>
<path d="M45.4297 20.1276V7.51861H44.0824V5.42381H48.1836V20.1276H45.4297Z" fill="#ED1C24"/>
<path d="M33.4575 20.1276V5.32309H38.4503C42.0959 5.32309 44.1762 7.21646 44.1762 10.2982V10.6205C44.1762 13.6821 42.0959 15.6158 38.4503 15.6158H36.2709V20.1276H33.4575ZM38.6881 7.80058H36.2709V13.1383H38.6881C40.3722 13.1383 41.3232 12.0304 41.3232 10.4594C41.3232 8.86812 40.3722 7.80058 38.6881 7.80058Z" fill="#ED1C24"/>
</svg>
